{"accessors":[{"bufferView":0,"byteOffset":0,"componentType":5126,"count":76415,"max":[427.6148986816406,51.961219787597656,72.64653015136719],"min":[284.1509094238281,-156.82530212402344,-145.5],"type":"VEC3"},{"bufferView":1,"byteOffset":0,"componentType":5125,"count":460026,"type":"SCALAR"}],"asset":{"generator":"VTK","version":"2.0"},"bufferViews":[{"buffer":0,"byteLength":916980,"byteOffset":0,"target":34962},{"buffer":1,"byteLength":1840104,"byteOffset":0,"target":34963}],"buffers":[{"byteLength":916980,"uri":"data:application/octet-stream;base64,"},{"byteLength":1840104,"uri":"data:application/octet-stream;base64,"}],"cameras":[{"perspective":{"aspectRatio":1.3333333333333333,"yfov":0.5235987755982988,"zfar":928.7488999359977,"znear":422.3187514769227},"type":"perspective"}],"materials":[{"pbrMetallicRoughness":{"baseColorFactor":[1.0,0.855,0.725,1.0],"metallicFactor":0.0,"roughnessFactor":1.0}}],"meshes":[{"name":"mesh0","primitives":[{"attributes":{"POSITION":0},"indices":1,"material":0,"mode":4}]}],"nodes":[{"mesh":0,"name":"mesh0"},{"camera":0,"matrix":[1.0,-0.0,0.0,-0.0,0.0,1.0,0.0,0.0,0.0,0.0,1.0,-0.0,355.8829040527344,-52.43204116821289,609.4061428307675,1.0],"name":"Camera Node"},{"children":[0,1],"name":"Renderer Node"}],"scene":0,"scenes":[{"name":"Layer 0","nodes":[2]}]}